  0
SECTION
  2
HEADER
  9
$ACADVER
  1
AC1009
  9
$DWGCODEPAGE
  3
ansi_1252
  9
$INSBASE
 10
0.0
 20
0.0
 30
0.0
  9
$EXTMIN
 10
4.1875
 20
3.25
 30
0.0
  9
$EXTMAX
 10
19.86542235421658
 20
10.2
 30
0.0
  9
$LIMMIN
 10
0.0
 20
0.0
  9
$LIMMAX
 10
12.0
 20
9.0
  9
$ORTHOMODE
 70
     0
  9
$REGENMODE
 70
     1
  9
$FILLMODE
 70
     1
  9
$QTEXTMODE
 70
     0
  9
$MIRRTEXT
 70
     1
  9
$DRAGMODE
 70
     2
  9
$LTSCALE
 40
1.0
  9
$OSMODE
 70
    37
  9
$ATTMODE
 70
     1
  9
$TEXTSIZE
 40
0.2
  9
$TRACEWID
 40
0.05
  9
$TEXTSTYLE
  7
STANDARD
  9
$CLAYER
  8
0
  9
$CELTYPE
  6
BYLAYER
  9
$CECOLOR
 62
   256
  9
$DIMSCALE
 40
1.0
  9
$DIMASZ
 40
0.18
  9
$DIMEXO
 40
0.0625
  9
$DIMDLI
 40
0.38
  9
$DIMRND
 40
0.0
  9
$DIMDLE
 40
0.0
  9
$DIMEXE
 40
0.18
  9
$DIMTP
 40
0.0
  9
$DIMTM
 40
0.0
  9
$DIMTXT
 40
0.18
  9
$DIMCEN
 40
0.09
  9
$DIMTSZ
 40
0.0
  9
$DIMTOL
 70
     0
  9
$DIMLIM
 70
     0
  9
$DIMTIH
 70
     1
  9
$DIMTOH
 70
     1
  9
$DIMSE1
 70
     0
  9
$DIMSE2
 70
     0
  9
$DIMTAD
 70
     0
  9
$DIMZIN
 70
     0
  9
$DIMBLK
  1

  9
$DIMASO
 70
     1
  9
$DIMSHO
 70
     1
  9
$DIMPOST
  1

  9
$DIMAPOST
  1

  9
$DIMALT
 70
     0
  9
$DIMALTD
 70
     2
  9
$DIMALTF
 40
25.4
  9
$DIMLFAC
 40
1.0
  9
$DIMTOFL
 70
     0
  9
$DIMTVP
 40
0.0
  9
$DIMTIX
 70
     0
  9
$DIMSOXD
 70
     0
  9
$DIMSAH
 70
     0
  9
$DIMBLK1
  1

  9
$DIMBLK2
  1

  9
$DIMSTYLE
  2
STANDARD_ACAD
  9
$DIMCLRD
 70
     0
  9
$DIMCLRE
 70
     0
  9
$DIMCLRT
 70
     0
  9
$DIMTFAC
 40
1.0
  9
$DIMGAP
 40
0.09
  9
$LUNITS
 70
     4
  9
$LUPREC
 70
     3
  9
$SKETCHINC
 40
0.1
  9
$FILLETRAD
 40
0.0
  9
$AUNITS
 70
     0
  9
$AUPREC
 70
     0
  9
$MENU
  1
.
  9
$ELEVATION
 40
0.0
  9
$PELEVATION
 40
0.0
  9
$THICKNESS
 40
0.0
  9
$LIMCHECK
 70
     0
  9
$CHAMFERA
 40
0.0
  9
$CHAMFERB
 40
0.0
  9
$SKPOLY
 70
     0
  9
$TDCREATE
 40
2460641.867118391
  9
$TDUPDATE
 40
2460641.867135672
  9
$TDINDWG
 40
0.0000000116
  9
$TDUSRTIMER
 40
0.0000000116
  9
$USRTIMER
 70
     1
  9
$ANGBASE
 50
0.0
  9
$ANGDIR
 70
     0
  9
$PDMODE
 70
     0
  9
$PDSIZE
 40
0.0
  9
$PLINEWID
 40
0.0
  9
$COORDS
 70
     1
  9
$SPLFRAME
 70
     0
  9
$SPLINETYPE
 70
     6
  9
$SPLINESEGS
 70
     8
  9
$ATTDIA
 70
     0
  9
$ATTREQ
 70
     1
  9
$HANDLING
 70
     1
  9
$HANDSEED
  5
144
  9
$SURFTAB1
 70
     6
  9
$SURFTAB2
 70
     6
  9
$SURFTYPE
 70
     6
  9
$SURFU
 70
     6
  9
$SURFV
 70
     6
  9
$UCSNAME
  2

  9
$UCSORG
 10
0.0
 20
0.0
 30
0.0
  9
$UCSXDIR
 10
1.0
 20
0.0
 30
0.0
  9
$UCSYDIR
 10
0.0
 20
1.0
 30
0.0
  9
$PUCSNAME
  2

  9
$PUCSORG
 10
0.0
 20
0.0
 30
0.0
  9
$PUCSXDIR
 10
1.0
 20
0.0
 30
0.0
  9
$PUCSYDIR
 10
0.0
 20
1.0
 30
0.0
  9
$USERI1
 70
     0
  9
$USERI2
 70
     0
  9
$USERI3
 70
     0
  9
$USERI4
 70
     0
  9
$USERI5
 70
     0
  9
$USERR1
 40
0.0
  9
$USERR2
 40
0.0
  9
$USERR3
 40
0.0
  9
$USERR4
 40
0.0
  9
$USERR5
 40
0.0
  9
$WORLDVIEW
 70
     1
  9
$SHADEDGE
 70
     3
  9
$SHADEDIF
 70
    70
  9
$TILEMODE
 70
     1
  9
$MAXACTVP
 70
    64
  9
$PLIMCHECK
 70
     0
  9
$PEXTMIN
 10
1.000000000000000E+20
 20
1.000000000000000E+20
 30
1.000000000000000E+20
  9
$PEXTMAX
 10
-1.000000000000000E+20
 20
-1.000000000000000E+20
 30
-1.000000000000000E+20
  9
$PLIMMIN
 10
0.0
 20
0.0
  9
$PLIMMAX
 10
12.0
 20
9.0
  9
$UNITMODE
 70
     0
  9
$VISRETAIN
 70
     1
  9
$PLINEGEN
 70
     0
  9
$PSLTSCALE
 70
     1
  0
ENDSEC
  0
SECTION
  2
TABLES
  0
TABLE
  2
VPORT
 70
     1
  0
VPORT
  2
*ACTIVE
 70
     0
 10
0.0
 20
0.0
 11
1.0
 21
1.0
 12
10.42990654205607
 22
4.5
 13
0.0
 23
0.0
 14
0.5
 24
0.5
 15
0.5
 25
0.5
 16
0.0
 26
0.0
 36
1.0
 17
0.0
 27
0.0
 37
0.0
 40
9.0
 41
1.972972972850329
 42
50.0
 43
0.0
 44
0.0
 50
0.0
 51
0.0
 71
     0
 72
   100
 73
     1
 74
     3
 75
     0
 76
     0
 77
     0
 78
     0
  0
ENDTAB
  0
TABLE
  2
LTYPE
 70
     1
  0
LTYPE
  2
CONTINUOUS
 70
     0
  3
Solid line
 72
    65
 73
     0
 40
0.0
  0
ENDTAB
  0
TABLE
  2
LAYER
 70
     2
  0
LAYER
  2
0
 70
     0
 62
     7
  6
CONTINUOUS
  0
LAYER
  2
CIRCUIT_OUTLINE_NEW
 70
     0
 62
     7
  6
CONTINUOUS
  0
ENDTAB
  0
TABLE
  2
STYLE
 70
     1
  0
STYLE
  2
STANDARD
 70
     0
 40
0.0
 41
1.0
 50
0.0
 71
     0
 42
0.2
  3
txt
  4

  0
ENDTAB
  0
TABLE
  2
VIEW
 70
     0
  0
ENDTAB
  0
TABLE
  2
UCS
 70
     0
  0
ENDTAB
  0
TABLE
  2
APPID
 70
     2
  0
APPID
  2
ACAD
 70
     0
  0
APPID
  2
RHINO
 70
     0
  0
ENDTAB
  0
TABLE
  2
DIMSTYLE
 70
     1
  0
DIMSTYLE
  2
STANDARD_ACAD
 70
     0
  3

  4

  5

  6

  7

 40
1.0
 41
0.18
 42
0.0625
 43
0.38
 44
0.18
 45
0.0
 46
0.0
 47
0.0
 48
0.0
140
0.18
141
0.09
142
0.0
143
25.4
144
1.0
145
0.0
146
1.0
147
0.09
 71
     0
 72
     0
 73
     1
 74
     1
 75
     0
 76
     0
 77
     0
 78
     0
170
     0
171
     2
172
     0
173
     0
174
     0
175
     0
176
     0
177
     0
178
     0
  0
ENDTAB
  0
ENDSEC
  0
SECTION
  2
BLOCKS
  0
BLOCK
  8
0
  2
$MODEL_SPACE
 70
     0
 10
0.0
 20
0.0
 30
0.0
  3
$MODEL_SPACE
  1

  0
ENDBLK
  5
21
  8
0
  0
BLOCK
 67
     1
  8
0
  2
$PAPER_SPACE
 70
     0
 10
0.0
 20
0.0
 30
0.0
  3
$PAPER_SPACE
  1

  0
ENDBLK
  5
1D
 67
     1
  8
0
  0
ENDSEC
  0
SECTION
  2
ENTITIES
  0
LINE
  5
60
  8
CIRCUIT_OUTLINE_NEW
 10
19.42081508967092
 20
5.338169702635573
 30
0.0
 11
19.47823669299214
 21
4.852393171187974
 31
0.0
  0
LINE
  5
61
  8
CIRCUIT_OUTLINE_NEW
 10
19.47823669299214
 20
4.852393171187974
 30
0.0
 11
19.47992276883059
 21
4.845317076576655
 31
0.0
  0
ARC
  5
62
  8
CIRCUIT_OUTLINE_NEW
 10
-19.35832699339025
 20
4.816343509895392
 30
0.0
 40
0.1250000006846817
 50
166.5976069885284
 51
179.9195706049019
210
0.0
220
0.0
230
-1.0
  0
LINE
  5
63
  8
CIRCUIT_OUTLINE_NEW
 10
19.48332687091646
 20
4.816518979558706
 30
0.0
 11
19.48523721062558
 21
3.455644049076949
 31
0.0
  0
ARC
  5
64
  8
CIRCUIT_OUTLINE_NEW
 10
-19.25923891262138
 20
3.545341869383703
 30
0.0
 40
0.243147958388669
 50
201.6479299349788
 51
286.4634558139346
210
0.0
220
0.0
230
-1.0
  0
LINE
  5
65
  8
CIRCUIT_OUTLINE_NEW
 10
19.19032987280033
 20
3.31216280964737
 30
0.0
 11
16.81659662940799
 21
3.311470455704117
 31
0.0
  0
ARC
  5
66
  8
CIRCUIT_OUTLINE_NEW
 10
-16.83284819405491
 20
4.307660644408138
 30
0.0
 40
0.9963227415971319
 50
270.9346242155834
 51
336.1243221819404
210
0.0
220
0.0
230
-1.0
  0
ARC
  5
67
  8
CIRCUIT_OUTLINE_NEW
 10
13.60959752863945
 20
2.947145450234859
 30
0.0
 40
2.502506410334553
 50
22.48965120467499
 51
74.14611576145475
  0
ARC
  5
68
  8
CIRCUIT_OUTLINE_NEW
 10
12.82461339407656
 20
0.4824520748226825
 30
0.0
 40
5.088550115326409
 50
73.22494862202609
 51
91.0746497548547
  0
LINE
  5
69
  8
CIRCUIT_OUTLINE_NEW
 10
12.72917724571835
 20
5.570107155287057
 30
0.0
 11
12.22087933807716
 21
5.540867795967807
 31
0.0
  0
LINE
  5
6A
  8
CIRCUIT_OUTLINE_NEW
 10
12.22087933807716
 20
5.540867795967807
 30
0.0
 11
11.74604293045051
 21
5.44934086753355
 31
0.0
  0
ARC
  5
6B
  8
CIRCUIT_OUTLINE_NEW
 10
12.33806087472742
 20
3.066121275829969
 30
0.0
 40
2.455650803478713
 50
103.9505235582127
 51
146.5984684165375
  0
LINE
  5
6C
  8
CIRCUIT_OUTLINE_NEW
 10
10.2880021841477
 20
4.417964548478178
 30
0.0
 11
10.26022274260431
 21
4.374855263205276
 31
0.0
  0
LINE
  5
6D
  8
CIRCUIT_OUTLINE_NEW
 10
10.26022274260431
 20
4.374855263205276
 30
0.0
 11
9.751930106797548
 21
3.929492308647471
 31
0.0
  0
LINE
  5
6E
  8
CIRCUIT_OUTLINE_NEW
 10
9.751930106797548
 20
3.929492308647471
 30
0.0
 11
9.265254878578276
 21
3.290731071609673
 31
0.0
  0
LINE
  5
6F
  8
CIRCUIT_OUTLINE_NEW
 10
9.265254878578276
 20
3.290731071609673
 30
0.0
 11
9.163427199554093
 21
3.25
 31
0.0
  0
LINE
  5
70
  8
CIRCUIT_OUTLINE_NEW
 10
9.163427199554093
 20
3.25
 30
0.0
 11
5.645526695296637
 21
3.25
 31
0.0
  0
LINE
  5
71
  8
CIRCUIT_OUTLINE_NEW
 10
5.645526695296637
 20
3.25
 30
0.0
 11
5.5625
 21
3.333026695296637
 31
0.0
  0
LINE
  5
72
  8
CIRCUIT_OUTLINE_NEW
 10
5.5625
 20
3.333026695296637
 30
0.0
 11
5.5625
 21
3.818883268889626
 31
0.0
  0
LINE
  5
73
  8
CIRCUIT_OUTLINE_NEW
 10
5.5625
 20
3.818883268889626
 30
0.0
 11
5.949999999999992
 21
4.754281681603238
 31
0.0
  0
LINE
  5
74
  8
CIRCUIT_OUTLINE_NEW
 10
5.949999999999992
 20
4.754281681603238
 30
0.0
 11
5.949999999999992
 21
5.250000000000002
 31
0.0
  0
LINE
  5
75
  8
CIRCUIT_OUTLINE_NEW
 10
5.949999999999992
 20
5.250000000000002
 30
0.0
 11
5.110592471529966
 21
5.25
 31
0.0
  0
ARC
  5
76
  8
CIRCUIT_OUTLINE_NEW
 10
-5.110592471529966
 20
5.374999999999995
 30
0.0
 40
0.1249999999999947
 50
270.0
 51
317.7263109939078
210
0.0
220
0.0
230
-1.0
  0
LINE
  5
77
  8
CIRCUIT_OUTLINE_NEW
 10
5.018099962355475
 20
5.290915900750462
 30
0.0
 11
4.220007490825507
 21
6.168817619433424
 31
0.0
  0
ARC
  5
78
  8
CIRCUIT_OUTLINE_NEW
 10
-4.312500000000001
 20
6.252901718682964
 30
0.0
 40
0.1250000000000012
 50
317.7263109939062
 51
0.0
210
0.0
220
0.0
230
-1.0
  0
LINE
  5
79
  8
CIRCUIT_OUTLINE_NEW
 10
4.1875
 20
6.252901718682964
 30
0.0
 11
4.1875
 21
8.15625
 31
0.0
  0
ARC
  5
7A
  8
CIRCUIT_OUTLINE_NEW
 10
-4.312499999999998
 20
8.15625
 30
0.0
 40
0.1249999999999982
 50
0.0
 51
90.00000000000082
210
0.0
220
0.0
230
-1.0
  0
LINE
  5
7B
  8
CIRCUIT_OUTLINE_NEW
 10
4.3125
 20
8.28125
 30
0.0
 11
5.949999999999999
 21
8.281250000000004
 31
0.0
  0
LINE
  5
7C
  8
CIRCUIT_OUTLINE_NEW
 10
5.949999999999999
 20
8.281250000000004
 30
0.0
 11
5.949999999999999
 21
10.02322330470336
 31
0.0
  0
LINE
  5
7D
  8
CIRCUIT_OUTLINE_NEW
 10
5.949999999999999
 20
10.02322330470336
 30
0.0
 11
6.126776695296641
 21
10.2
 31
0.0
  0
LINE
  5
7E
  8
CIRCUIT_OUTLINE_NEW
 10
6.126776695296641
 20
10.2
 30
0.0
 11
9.433351969527614
 21
10.19999999999998
 31
0.0
  0
ARC
  5
7F
  8
CIRCUIT_OUTLINE_NEW
 10
-9.433351969527594
 20
10.07499999999993
 30
0.0
 40
0.1250000000000497
 50
90.00000000000895
 51
133.6684996169603
210
0.0
220
0.0
230
-1.0
  0
LINE
  5
80
  8
CIRCUIT_OUTLINE_NEW
 10
9.519662573265276
 20
10.16541835921115
 30
0.0
 11
9.624482695720257
 21
10.06536027220457
 31
0.0
  0
ARC
  5
81
  8
CIRCUIT_OUTLINE_NEW
 10
-9.538172091982574
 20
9.97494191299339
 30
0.0
 40
0.1250000000000223
 50
133.6684996169732
 51
177.3369992339318
210
0.0
220
0.0
230
-1.0
  0
LINE
  5
82
  8
CIRCUIT_OUTLINE_NEW
 10
9.663037102742354
 20
9.980749587912452
 30
0.0
 11
9.675639334270823
 21
9.709801610050498
 31
0.0
  0
LINE
  5
83
  8
CIRCUIT_OUTLINE_NEW
 10
9.675639334270823
 20
9.709801610050498
 30
0.0
 11
9.93426768387536
 21
9.153750658400735
 31
0.0
  0
LINE
  5
84
  8
CIRCUIT_OUTLINE_NEW
 10
9.93426768387536
 20
9.153750658400735
 30
0.0
 11
9.94470465617497
 21
9.141226291641205
 31
0.0
  0
LINE
  5
85
  8
CIRCUIT_OUTLINE_NEW
 10
9.94470465617497
 20
9.141226291641205
 30
0.0
 11
10.388333691233
 21
8.608871449571573
 31
0.0
  0
ARC
  5
86
  8
CIRCUIT_OUTLINE_NEW
 10
10.67641667108182
 20
8.84894059944542
 30
0.0
 40
0.3749999999996362
 50
219.8055710922452
 51
250.3874294171515
  0
LINE
  5
87
  8
CIRCUIT_OUTLINE_NEW
 10
10.55054482836236
 20
8.495696662186567
 30
0.0
 11
11.01925691606396
 21
8.328679912679803
 31
0.0
  0
ARC
  5
88
  8
CIRCUIT_OUTLINE_NEW
 10
-10.9772996351572
 20
8.210931933593018
 30
0.0
 40
0.1250000000004416
 50
109.6125705828892
 51
121.4776902916097
210
0.0
220
0.0
230
-1.0
  0
LINE
  5
89
  8
CIRCUIT_OUTLINE_NEW
 10
11.04257045089578
 20
8.317537377229495
 30
0.0
 11
11.30837855687881
 21
8.176179413992323
 31
0.0
  0
LINE
  5
8A
  8
CIRCUIT_OUTLINE_NEW
 10
11.30837855687881
 20
8.176179413992323
 30
0.0
 11
11.74604293045051
 21
8.019390762517869
 31
0.0
  0
LINE
  5
8B
  8
CIRCUIT_OUTLINE_NEW
 10
11.74604293045051
 20
8.019390762517869
 30
0.0
 11
12.22087933807716
 21
7.927863834083611
 31
0.0
  0
LINE
  5
8C
  8
CIRCUIT_OUTLINE_NEW
 10
12.22087933807716
 20
7.927863834083611
 30
0.0
 11
12.72917724571835
 21
7.898624474764361
 31
0.0
  0
ARC
  5
8D
  8
CIRCUIT_OUTLINE_NEW
 10
12.82461339407646
 20
12.98627955522951
 30
0.0
 40
5.088550115327183
 50
268.9253502451467
 51
286.7750513779725
  0
ARC
  5
8E
  8
CIRCUIT_OUTLINE_NEW
 10
13.60614254663393
 20
10.52626496171741
 30
0.0
 40
2.507951901895847
 50
285.9006124158254
 51
336.000031254469
  0
ARC
  5
8F
  8
CIRCUIT_OUTLINE_NEW
 10
-16.12642601311277
 20
9.40625
 30
0.0
 40
0.2500000000000041
 50
23.563244271785
 51
90.00000000000487
210
0.0
220
0.0
230
-1.0
  0
LINE
  5
90
  8
CIRCUIT_OUTLINE_NEW
 10
16.12642601311279
 20
9.656250000000004
 30
0.0
 11
16.31250000000001
 21
9.656250000000002
 31
0.0
  0
ARC
  5
91
  8
CIRCUIT_OUTLINE_NEW
 10
-16.31249999999999
 20
9.406249999999998
 30
0.0
 40
0.2500000000000036
 50
90.00000000000325
 51
179.9999999999971
210
0.0
220
0.0
230
-1.0
  0
LINE
  5
92
  8
CIRCUIT_OUTLINE_NEW
 10
16.5625
 20
9.40625000000001
 30
0.0
 11
16.5625
 21
9.151940595476376
 31
0.0
  0
LINE
  5
93
  8
CIRCUIT_OUTLINE_NEW
 10
16.5625
 20
9.151940595476376
 30
0.0
 11
16.996254725391
 21
8.451259885229371
 31
0.0
  0
LINE
  5
94
  8
CIRCUIT_OUTLINE_NEW
 10
16.996254725391
 20
8.451259885229371
 30
0.0
 11
17.51153790339766
 21
7.970328919089827
 31
0.0
  0
LINE
  5
95
  8
CIRCUIT_OUTLINE_NEW
 10
17.51153790339766
 20
7.970328919089827
 30
0.0
 11
18.30428303518705
 21
7.944756495483719
 31
0.0
  0
LINE
  5
96
  8
CIRCUIT_OUTLINE_NEW
 10
18.30428303518705
 20
7.944756495483719
 30
0.0
 11
18.82291550330801
 21
7.937479590464921
 31
0.0
  0
LINE
  5
97
  8
CIRCUIT_OUTLINE_NEW
 10
18.82291550330801
 20
7.937479590464921
 30
0.0
 11
19.07212802031173
 21
7.809322975063477
 31
0.0
  0
LINE
  5
98
  8
CIRCUIT_OUTLINE_NEW
 10
19.07212802031173
 20
7.809322975063477
 30
0.0
 11
19.1071185958055
 21
7.799396973786289
 31
0.0
  0
ARC
  5
99
  8
CIRCUIT_OUTLINE_NEW
 10
-19.03889157171471
 20
7.55888694658633
 30
0.0
 40
0.2500000000000193
 50
105.8373890748146
 51
177.6471362559838
210
0.0
220
0.0
230
-1.0
  0
LINE
  5
9A
  8
CIRCUIT_OUTLINE_NEW
 10
19.28868080730749
 20
7.569150366191259
 30
0.0
 11
19.29013898079317
 21
7.533661605683456
 31
0.0
  0
LINE
  5
9B
  8
CIRCUIT_OUTLINE_NEW
 10
19.29013898079317
 20
7.533661605683456
 30
0.0
 11
19.29965610653666
 21
7.480869545430175
 31
0.0
  0
LINE
  5
9C
  8
CIRCUIT_OUTLINE_NEW
 10
19.29965610653666
 20
7.480869545430175
 30
0.0
 11
19.30299264021709
 21
7.403110837513596
 31
0.0
  0
LINE
  5
9D
  8
CIRCUIT_OUTLINE_NEW
 10
19.30299264021709
 20
7.403110837513596
 30
0.0
 11
19.30264919842802
 21
7.279665805918408
 31
0.0
  0
LINE
  5
9E
  8
CIRCUIT_OUTLINE_NEW
 10
19.30264919842802
 20
7.279665805918408
 30
0.0
 11
19.42608026748127
 21
7.277777693058177
 31
0.0
  0
LINE
  5
9F
  8
CIRCUIT_OUTLINE_NEW
 10
19.42608026748127
 20
7.277777693058177
 30
0.0
 11
19.60116181276707
 21
7.276984741004696
 31
0.0
  0
LINE
  5
A0
  8
CIRCUIT_OUTLINE_NEW
 10
19.60116181276707
 20
7.276984741004696
 30
0.0
 11
19.63324488271493
 21
7.277019870905256
 31
0.0
  0
LINE
  5
A1
  8
CIRCUIT_OUTLINE_NEW
 10
19.63324488271493
 20
7.277019870905256
 30
0.0
 11
19.67362898811577
 21
7.27807094141912
 31
0.0
  0
LINE
  5
A2
  8
CIRCUIT_OUTLINE_NEW
 10
19.67362898811577
 20
7.27807094141912
 30
0.0
 11
19.68035937284507
 21
7.278078760415543
 31
0.0
  0
LINE
  5
A3
  8
CIRCUIT_OUTLINE_NEW
 10
19.68035937284507
 20
7.278078760415543
 30
0.0
 11
19.68708961380522
 21
7.277968664980273
 31
0.0
  0
LINE
  5
A4
  8
CIRCUIT_OUTLINE_NEW
 10
19.68708961380522
 20
7.277968664980273
 30
0.0
 11
19.69346914187237
 21
7.277731098147779
 31
0.0
  0
LINE
  5
A5
  8
CIRCUIT_OUTLINE_NEW
 10
19.69346914187237
 20
7.277731098147779
 30
0.0
 11
19.69984089618914
 21
7.277338892107601
 31
0.0
  0
LINE
  5
A6
  8
CIRCUIT_OUTLINE_NEW
 10
19.69984089618914
 20
7.277338892107601
 30
0.0
 11
19.70619725185584
 21
7.276767029269285
 31
0.0
  0
LINE
  5
A7
  8
CIRCUIT_OUTLINE_NEW
 10
19.70619725185584
 20
7.276767029269285
 30
0.0
 11
19.71253058397278
 21
7.275990492042378
 31
0.0
  0
LINE
  5
A8
  8
CIRCUIT_OUTLINE_NEW
 10
19.71253058397278
 20
7.275990492042378
 30
0.0
 11
19.71601481743645
 21
7.275465629485707
 31
0.0
  0
LINE
  5
A9
  8
CIRCUIT_OUTLINE_NEW
 10
19.71601481743645
 20
7.275465629485707
 30
0.0
 11
19.71948816825868
 21
7.27487086800215
 31
0.0
  0
LINE
  5
AA
  8
CIRCUIT_OUTLINE_NEW
 10
19.71948816825868
 20
7.27487086800215
 30
0.0
 11
19.72294909742953
 21
7.274206333649571
 31
0.0
  0
LINE
  5
AB
  8
CIRCUIT_OUTLINE_NEW
 10
19.72294909742953
 20
7.274206333649571
 30
0.0
 11
19.72639606593905
 21
7.273472152485827
 31
0.0
  0
LINE
  5
AC
  8
CIRCUIT_OUTLINE_NEW
 10
19.72639606593905
 20
7.273472152485827
 30
0.0
 11
19.72982753477727
 21
7.27266845056878
 31
0.0
  0
LINE
  5
AD
  8
CIRCUIT_OUTLINE_NEW
 10
19.72982753477727
 20
7.27266845056878
 30
0.0
 11
19.73324196493426
 21
7.271795353956291
 31
0.0
  0
LINE
  5
AE
  8
CIRCUIT_OUTLINE_NEW
 10
19.73324196493426
 20
7.271795353956291
 30
0.0
 11
19.73663781740006
 21
7.270852988706217
 31
0.0
  0
LINE
  5
AF
  8
CIRCUIT_OUTLINE_NEW
 10
19.73663781740006
 20
7.270852988706217
 30
0.0
 11
19.74001355316472
 21
7.26984148087642
 31
0.0
  0
LINE
  5
B0
  8
CIRCUIT_OUTLINE_NEW
 10
19.74001355316472
 20
7.26984148087642
 30
0.0
 11
19.74305871252772
 21
7.268863831849472
 31
0.0
  0
LINE
  5
B1
  8
CIRCUIT_OUTLINE_NEW
 10
19.74305871252772
 20
7.268863831849472
 30
0.0
 11
19.74608531110356
 21
7.267830244238875
 31
0.0
  0
LINE
  5
B2
  8
CIRCUIT_OUTLINE_NEW
 10
19.74608531110356
 20
7.267830244238875
 30
0.0
 11
19.74909262644843
 21
7.266741630072315
 31
0.0
  0
LINE
  5
B3
  8
CIRCUIT_OUTLINE_NEW
 10
19.74909262644843
 20
7.266741630072315
 30
0.0
 11
19.75207993611851
 21
7.265598901377474
 31
0.0
  0
LINE
  5
B4
  8
CIRCUIT_OUTLINE_NEW
 10
19.75207993611851
 20
7.265598901377474
 30
0.0
 11
19.75504651767
 21
7.264402970182036
 31
0.0
  0
LINE
  5
B5
  8
CIRCUIT_OUTLINE_NEW
 10
19.75504651767
 20
7.264402970182036
 30
0.0
 11
19.75799164865909
 21
7.263154748513683
 31
0.0
  0
LINE
  5
B6
  8
CIRCUIT_OUTLINE_NEW
 10
19.75799164865909
 20
7.263154748513683
 30
0.0
 11
19.76381466917485
 21
7.260505081868968
 31
0.0
  0
LINE
  5
B7
  8
CIRCUIT_OUTLINE_NEW
 10
19.76381466917485
 20
7.260505081868968
 30
0.0
 11
19.76677813572054
 21
7.259061937541695
 31
0.0
  0
LINE
  5
B8
  8
CIRCUIT_OUTLINE_NEW
 10
19.76677813572054
 20
7.259061937541695
 30
0.0
 11
19.76971518412765
 21
7.257566067062058
 31
0.0
  0
LINE
  5
B9
  8
CIRCUIT_OUTLINE_NEW
 10
19.76971518412765
 20
7.257566067062058
 30
0.0
 11
19.77262447275217
 21
7.256017359062011
 31
0.0
  0
LINE
  5
BA
  8
CIRCUIT_OUTLINE_NEW
 10
19.77262447275217
 20
7.256017359062011
 30
0.0
 11
19.77550465995012
 21
7.254415702173512
 31
0.0
  0
LINE
  5
BB
  8
CIRCUIT_OUTLINE_NEW
 10
19.77550465995012
 20
7.254415702173512
 30
0.0
 11
19.7783544040775
 21
7.252760985028516
 31
0.0
  0
LINE
  5
BC
  8
CIRCUIT_OUTLINE_NEW
 10
19.7783544040775
 20
7.252760985028516
 30
0.0
 11
19.78117236349032
 21
7.251053096258979
 31
0.0
  0
LINE
  5
BD
  8
CIRCUIT_OUTLINE_NEW
 10
19.78117236349032
 20
7.251053096258979
 30
0.0
 11
19.78395719654458
 21
7.249291924496858
 31
0.0
  0
LINE
  5
BE
  8
CIRCUIT_OUTLINE_NEW
 10
19.78395719654458
 20
7.249291924496858
 30
0.0
 11
19.78670756159629
 21
7.247477358374108
 31
0.0
  0
LINE
  5
BF
  8
CIRCUIT_OUTLINE_NEW
 10
19.78670756159629
 20
7.247477358374108
 30
0.0
 11
19.78928725424569
 21
7.245704347615942
 31
0.0
  0
LINE
  5
C0
  8
CIRCUIT_OUTLINE_NEW
 10
19.78928725424569
 20
7.245704347615942
 30
0.0
 11
19.79183446744218
 21
7.243884552564785
 31
0.0
  0
LINE
  5
C1
  8
CIRCUIT_OUTLINE_NEW
 10
19.79183446744218
 20
7.243884552564785
 30
0.0
 11
19.79434903564537
 21
7.242019471432591
 31
0.0
  0
LINE
  5
C2
  8
CIRCUIT_OUTLINE_NEW
 10
19.79434903564537
 20
7.242019471432591
 30
0.0
 11
19.79933100370344
 21
7.238117448089068
 31
0.0
  0
LINE
  5
C3
  8
CIRCUIT_OUTLINE_NEW
 10
19.79933100370344
 20
7.238117448089068
 30
0.0
 11
19.80179588121785
 21
7.236080685283767
 31
0.0
  0
LINE
  5
C4
  8
CIRCUIT_OUTLINE_NEW
 10
19.80179588121785
 20
7.236080685283767
 30
0.0
 11
19.80422448208371
 21
7.234000807322509
 31
0.0
  0
LINE
  5
C5
  8
CIRCUIT_OUTLINE_NEW
 10
19.80422448208371
 20
7.234000807322509
 30
0.0
 11
19.80661586252666
 21
7.231878307512387
 31
0.0
  0
LINE
  5
C6
  8
CIRCUIT_OUTLINE_NEW
 10
19.80661586252666
 20
7.231878307512387
 30
0.0
 11
19.80896907877229
 21
7.229713679160495
 31
0.0
  0
LINE
  5
C7
  8
CIRCUIT_OUTLINE_NEW
 10
19.80896907877229
 20
7.229713679160495
 30
0.0
 11
19.81128318704625
 21
7.227507415573927
 31
0.0
  0
LINE
  5
C8
  8
CIRCUIT_OUTLINE_NEW
 10
19.81128318704625
 20
7.227507415573927
 30
0.0
 11
19.81355724357415
 21
7.225260010059774
 31
0.0
  0
LINE
  5
C9
  8
CIRCUIT_OUTLINE_NEW
 10
19.81355724357415
 20
7.225260010059774
 30
0.0
 11
19.8157903045816
 21
7.222971955925134
 31
0.0
  0
LINE
  5
CA
  8
CIRCUIT_OUTLINE_NEW
 10
19.8157903045816
 20
7.222971955925134
 30
0.0
 11
19.81861507759544
 21
7.219954486837974
 31
0.0
  0
LINE
  5
CB
  8
CIRCUIT_OUTLINE_NEW
 10
19.81861507759544
 20
7.219954486837974
 30
0.0
 11
19.82136804948733
 21
7.216871491547837
 31
0.0
  0
LINE
  5
CC
  8
CIRCUIT_OUTLINE_NEW
 10
19.82136804948733
 20
7.216871491547837
 30
0.0
 11
19.8240475190773
 21
7.213724561936391
 31
0.0
  0
LINE
  5
CD
  8
CIRCUIT_OUTLINE_NEW
 10
19.8240475190773
 20
7.213724561936391
 30
0.0
 11
19.8266517851854
 21
7.210515289885298
 31
0.0
  0
LINE
  5
CE
  8
CIRCUIT_OUTLINE_NEW
 10
19.8266517851854
 20
7.210515289885298
 30
0.0
 11
19.82917914663166
 21
7.207245267276222
 31
0.0
  0
LINE
  5
CF
  8
CIRCUIT_OUTLINE_NEW
 10
19.82917914663166
 20
7.207245267276222
 30
0.0
 11
19.83162790223611
 21
7.203916085990825
 31
0.0
  0
LINE
  5
D0
  8
CIRCUIT_OUTLINE_NEW
 10
19.83162790223611
 20
7.203916085990825
 30
0.0
 11
19.8339963508188
 21
7.200529337910773
 31
0.0
  0
LINE
  5
D1
  8
CIRCUIT_OUTLINE_NEW
 10
19.8339963508188
 20
7.200529337910773
 30
0.0
 11
19.83628279119976
 21
7.197086614917728
 31
0.0
  0
LINE
  5
D2
  8
CIRCUIT_OUTLINE_NEW
 10
19.83628279119976
 20
7.197086614917728
 30
0.0
 11
19.8380617206292
 21
7.194277553328619
 31
0.0
  0
LINE
  5
D3
  8
CIRCUIT_OUTLINE_NEW
 10
19.8380617206292
 20
7.194277553328619
 30
0.0
 11
19.8397867664742
 21
7.191434810566976
 31
0.0
  0
LINE
  5
D4
  8
CIRCUIT_OUTLINE_NEW
 10
19.8397867664742
 20
7.191434810566976
 30
0.0
 11
19.84145822185578
 21
7.188559902154012
 31
0.0
  0
LINE
  5
D5
  8
CIRCUIT_OUTLINE_NEW
 10
19.84145822185578
 20
7.188559902154012
 30
0.0
 11
19.84307637989496
 21
7.185654343610937
 31
0.0
  0
LINE
  5
D6
  8
CIRCUIT_OUTLINE_NEW
 10
19.84307637989496
 20
7.185654343610937
 30
0.0
 11
19.84464153371276
 21
7.182719650458964
 31
0.0
  0
LINE
  5
D7
  8
CIRCUIT_OUTLINE_NEW
 10
19.84464153371276
 20
7.182719650458964
 30
0.0
 11
19.84615397643022
 21
7.179757338219304
 31
0.0
  0
LINE
  5
D8
  8
CIRCUIT_OUTLINE_NEW
 10
19.84615397643022
 20
7.179757338219304
 30
0.0
 11
19.84902190104818
 21
7.173755918561767
 31
0.0
  0
LINE
  5
D9
  8
CIRCUIT_OUTLINE_NEW
 10
19.84902190104818
 20
7.173755918561767
 30
0.0
 11
19.85069332355581
 21
7.169988958861634
 31
0.0
  0
LINE
  5
DA
  8
CIRCUIT_OUTLINE_NEW
 10
19.85069332355581
 20
7.169988958861634
 30
0.0
 11
19.85227500045482
 21
7.166186731830871
 31
0.0
  0
LINE
  5
DB
  8
CIRCUIT_OUTLINE_NEW
 10
19.85227500045482
 20
7.166186731830871
 30
0.0
 11
19.85375681984997
 21
7.162349418512062
 31
0.0
  0
LINE
  5
DC
  8
CIRCUIT_OUTLINE_NEW
 10
19.85375681984997
 20
7.162349418512062
 30
0.0
 11
19.85512866984601
 21
7.158477199947786
 31
0.0
  0
LINE
  5
DD
  8
CIRCUIT_OUTLINE_NEW
 10
19.85512866984601
 20
7.158477199947786
 30
0.0
 11
19.85647787829999
 21
7.154270776044719
 31
0.0
  0
LINE
  5
DE
  8
CIRCUIT_OUTLINE_NEW
 10
19.85647787829999
 20
7.154270776044719
 30
0.0
 11
19.85771713062364
 21
7.150028194037153
 31
0.0
  0
LINE
  5
DF
  8
CIRCUIT_OUTLINE_NEW
 10
19.85771713062364
 20
7.150028194037153
 30
0.0
 11
19.85998252021191
 21
7.141450870275642
 31
0.0
  0
LINE
  5
E0
  8
CIRCUIT_OUTLINE_NEW
 10
19.85998252021191
 20
7.141450870275642
 30
0.0
 11
19.86169726868659
 21
7.134351082828802
 31
0.0
  0
LINE
  5
E1
  8
CIRCUIT_OUTLINE_NEW
 10
19.86169726868659
 20
7.134351082828802
 30
0.0
 11
19.86245317892828
 21
7.130779188578188
 31
0.0
  0
LINE
  5
E2
  8
CIRCUIT_OUTLINE_NEW
 10
19.86245317892828
 20
7.130779188578188
 30
0.0
 11
19.86309934877588
 21
7.127193731746116
 31
0.0
  0
LINE
  5
E3
  8
CIRCUIT_OUTLINE_NEW
 10
19.86309934877588
 20
7.127193731746116
 30
0.0
 11
19.86351384707608
 21
7.124366898922123
 31
0.0
  0
LINE
  5
E4
  8
CIRCUIT_OUTLINE_NEW
 10
19.86351384707608
 20
7.124366898922123
 30
0.0
 11
19.86385119146498
 21
7.121533174384704
 31
0.0
  0
LINE
  5
E5
  8
CIRCUIT_OUTLINE_NEW
 10
19.86385119146498
 20
7.121533174384704
 30
0.0
 11
19.86412151746444
 21
7.11869353236602
 31
0.0
  0
LINE
  5
E6
  8
CIRCUIT_OUTLINE_NEW
 10
19.86412151746444
 20
7.11869353236602
 30
0.0
 11
19.86433496059631
 21
7.115848947098224
 31
0.0
  0
LINE
  5
E7
  8
CIRCUIT_OUTLINE_NEW
 10
19.86433496059631
 20
7.115848947098224
 30
0.0
 11
19.86463174034467
 21
7.110148843743927
 31
0.0
  0
LINE
  5
E8
  8
CIRCUIT_OUTLINE_NEW
 10
19.86463174034467
 20
7.110148843743927
 30
0.0
 11
19.86542235421658
 21
7.069014658773551
 31
0.0
  0
LINE
  5
E9
  8
CIRCUIT_OUTLINE_NEW
 10
19.86542235421658
 20
7.069014658773551
 30
0.0
 11
19.86386451792703
 21
6.478619876741805
 31
0.0
  0
LINE
  5
EA
  8
CIRCUIT_OUTLINE_NEW
 10
19.86386451792703
 20
6.478619876741805
 30
0.0
 11
19.86533763578511
 21
6.385152354068435
 31
0.0
  0
LINE
  5
EB
  8
CIRCUIT_OUTLINE_NEW
 10
19.86533763578511
 20
6.385152354068435
 30
0.0
 11
19.86519298031877
 21
6.374570815769416
 31
0.0
  0
LINE
  5
EC
  8
CIRCUIT_OUTLINE_NEW
 10
19.86519298031877
 20
6.374570815769416
 30
0.0
 11
19.86498571898633
 21
6.369284198802036
 31
0.0
  0
LINE
  5
ED
  8
CIRCUIT_OUTLINE_NEW
 10
19.86498571898633
 20
6.369284198802036
 30
0.0
 11
19.86466791316461
 21
6.36400110413547
 31
0.0
  0
LINE
  5
EE
  8
CIRCUIT_OUTLINE_NEW
 10
19.86466791316461
 20
6.36400110413547
 30
0.0
 11
19.8641034075271
 21
6.357492844540685
 31
0.0
  0
LINE
  5
EF
  8
CIRCUIT_OUTLINE_NEW
 10
19.8641034075271
 20
6.357492844540685
 30
0.0
 11
19.86333400274525
 21
6.351002956509257
 31
0.0
  0
LINE
  5
F0
  8
CIRCUIT_OUTLINE_NEW
 10
19.86333400274525
 20
6.351002956509257
 30
0.0
 11
19.86234643741277
 21
6.344543593434798
 31
0.0
  0
LINE
  5
F1
  8
CIRCUIT_OUTLINE_NEW
 10
19.86234643741277
 20
6.344543593434798
 30
0.0
 11
19.86176670035057
 21
6.341329156691934
 31
0.0
  0
LINE
  5
F2
  8
CIRCUIT_OUTLINE_NEW
 10
19.86176670035057
 20
6.341329156691934
 30
0.0
 11
19.86112745012336
 21
6.338126908710918
 31
0.0
  0
LINE
  5
F3
  8
CIRCUIT_OUTLINE_NEW
 10
19.86112745012336
 20
6.338126908710918
 30
0.0
 11
19.86039091403277
 21
6.334779747900967
 31
0.0
  0
LINE
  5
F4
  8
CIRCUIT_OUTLINE_NEW
 10
19.86039091403277
 20
6.334779747900967
 30
0.0
 11
19.85958753350283
 21
6.331448692578853
 31
0.0
  0
LINE
  5
F5
  8
CIRCUIT_OUTLINE_NEW
 10
19.85958753350283
 20
6.331448692578853
 30
0.0
 11
19.85871788289966
 21
6.328134740173375
 31
0.0
  0
LINE
  5
F6
  8
CIRCUIT_OUTLINE_NEW
 10
19.85871788289966
 20
6.328134740173375
 30
0.0
 11
19.85778253658942
 21
6.324838888113334
 31
0.0
  0
LINE
  5
F7
  8
CIRCUIT_OUTLINE_NEW
 10
19.85778253658942
 20
6.324838888113334
 30
0.0
 11
19.85678206893825
 21
6.321562133827525
 31
0.0
  0
LINE
  5
F8
  8
CIRCUIT_OUTLINE_NEW
 10
19.85678206893825
 20
6.321562133827525
 30
0.0
 11
19.85571705431228
 21
6.318305474744749
 31
0.0
  0
LINE
  5
F9
  8
CIRCUIT_OUTLINE_NEW
 10
19.85571705431228
 20
6.318305474744749
 30
0.0
 11
19.85458806707766
 21
6.315069908293806
 31
0.0
  0
LINE
  5
FA
  8
CIRCUIT_OUTLINE_NEW
 10
19.85458806707766
 20
6.315069908293806
 30
0.0
 11
19.85339568160054
 21
6.311856431903495
 31
0.0
  0
LINE
  5
FB
  8
CIRCUIT_OUTLINE_NEW
 10
19.85339568160054
 20
6.311856431903495
 30
0.0
 11
19.85224225524376
 21
6.308918078162986
 31
0.0
  0
LINE
  5
FC
  8
CIRCUIT_OUTLINE_NEW
 10
19.85224225524376
 20
6.308918078162986
 30
0.0
 11
19.85103617491985
 21
6.306000412586215
 31
0.0
  0
LINE
  5
FD
  8
CIRCUIT_OUTLINE_NEW
 10
19.85103617491985
 20
6.306000412586215
 30
0.0
 11
19.84977804729051
 21
6.303104550297555
 31
0.0
  0
LINE
  5
FE
  8
CIRCUIT_OUTLINE_NEW
 10
19.84977804729051
 20
6.303104550297555
 30
0.0
 11
19.84846847901743
 21
6.300231606421381
 31
0.0
  0
LINE
  5
FF
  8
CIRCUIT_OUTLINE_NEW
 10
19.84846847901743
 20
6.300231606421381
 30
0.0
 11
19.8462549632873
 21
6.295659849647187
 31
0.0
  0
LINE
  5
100
  8
CIRCUIT_OUTLINE_NEW
 10
19.8462549632873
 20
6.295659849647187
 30
0.0
 11
19.84391213094283
 21
6.291153577895883
 31
0.0
  0
LINE
  5
101
  8
CIRCUIT_OUTLINE_NEW
 10
19.84391213094283
 20
6.291153577895883
 30
0.0
 11
19.84144226158695
 21
6.286716059491781
 31
0.0
  0
LINE
  5
102
  8
CIRCUIT_OUTLINE_NEW
 10
19.84144226158695
 20
6.286716059491781
 30
0.0
 11
19.83884763482259
 21
6.282350562759192
 31
0.0
  0
LINE
  5
103
  8
CIRCUIT_OUTLINE_NEW
 10
19.83884763482259
 20
6.282350562759192
 30
0.0
 11
19.83712746083205
 21
6.279603482911867
 31
0.0
  0
LINE
  5
104
  8
CIRCUIT_OUTLINE_NEW
 10
19.83712746083205
 20
6.279603482911867
 30
0.0
 11
19.83535798512843
 21
6.276887961474362
 31
0.0
  0
LINE
  5
105
  8
CIRCUIT_OUTLINE_NEW
 10
19.83535798512843
 20
6.276887961474362
 30
0.0
 11
19.83353979762256
 21
6.274204887298543
 31
0.0
  0
LINE
  5
106
  8
CIRCUIT_OUTLINE_NEW
 10
19.83353979762256
 20
6.274204887298543
 30
0.0
 11
19.83167348822529
 21
6.271555149236276
 31
0.0
  0
LINE
  5
107
  8
CIRCUIT_OUTLINE_NEW
 10
19.83167348822529
 20
6.271555149236276
 30
0.0
 11
19.82975964684744
 21
6.268939636139425
 31
0.0
  0
LINE
  5
108
  8
CIRCUIT_OUTLINE_NEW
 10
19.82975964684744
 20
6.268939636139425
 30
0.0
 11
19.82779886339983
 21
6.266359236859856
 31
0.0
  0
LINE
  5
109
  8
CIRCUIT_OUTLINE_NEW
 10
19.82779886339983
 20
6.266359236859856
 30
0.0
 11
19.82579172779331
 21
6.263814840249433
 31
0.0
  0
LINE
  5
10A
  8
CIRCUIT_OUTLINE_NEW
 10
19.82579172779331
 20
6.263814840249433
 30
0.0
 11
19.8237388299387
 21
6.261307335160021
 31
0.0
  0
LINE
  5
10B
  8
CIRCUIT_OUTLINE_NEW
 10
19.8237388299387
 20
6.261307335160021
 30
0.0
 11
19.82164075974683
 21
6.258837610443488
 31
0.0
  0
LINE
  5
10C
  8
CIRCUIT_OUTLINE_NEW
 10
19.82164075974683
 20
6.258837610443488
 30
0.0
 11
19.81949810712854
 21
6.256406554951697
 31
0.0
  0
LINE
  5
10D
  8
CIRCUIT_OUTLINE_NEW
 10
19.81949810712854
 20
6.256406554951697
 30
0.0
 11
19.81731146199466
 21
6.254015057536513
 31
0.0
  0
LINE
  5
10E
  8
CIRCUIT_OUTLINE_NEW
 10
19.81731146199466
 20
6.254015057536513
 30
0.0
 11
19.81508141425602
 21
6.251664007049803
 31
0.0
  0
LINE
  5
10F
  8
CIRCUIT_OUTLINE_NEW
 10
19.81508141425602
 20
6.251664007049803
 30
0.0
 11
19.81280855382344
 21
6.249354292343432
 31
0.0
  0
LINE
  5
110
  8
CIRCUIT_OUTLINE_NEW
 10
19.81280855382344
 20
6.249354292343432
 30
0.0
 11
19.81049347060777
 21
6.247086802269262
 31
0.0
  0
LINE
  5
111
  8
CIRCUIT_OUTLINE_NEW
 10
19.81049347060777
 20
6.247086802269262
 30
0.0
 11
19.80813675451984
 21
6.244862425679162
 31
0.0
  0
LINE
  5
112
  8
CIRCUIT_OUTLINE_NEW
 10
19.80813675451984
 20
6.244862425679162
 30
0.0
 11
19.80573899547046
 21
6.242682051424996
 31
0.0
  0
LINE
  5
113
  8
CIRCUIT_OUTLINE_NEW
 10
19.80573899547046
 20
6.242682051424996
 30
0.0
 11
19.80264658956595
 21
6.239986752314021
 31
0.0
  0
LINE
  5
114
  8
CIRCUIT_OUTLINE_NEW
 10
19.80264658956595
 20
6.239986752314021
 30
0.0
 11
19.79949187218406
 21
6.237363916157875
 31
0.0
  0
LINE
  5
115
  8
CIRCUIT_OUTLINE_NEW
 10
19.79949187218406
 20
6.237363916157875
 30
0.0
 11
19.79627733122842
 21
6.234814097337366
 31
0.0
  0
LINE
  5
116
  8
CIRCUIT_OUTLINE_NEW
 10
19.79627733122842
 20
6.234814097337366
 30
0.0
 11
19.79300545460272
 21
6.232337850233302
 31
0.0
  0
LINE
  5
117
  8
CIRCUIT_OUTLINE_NEW
 10
19.79300545460272
 20
6.232337850233302
 30
0.0
 11
19.7896787302106
 21
6.229935729226492
 31
0.0
  0
LINE
  5
118
  8
CIRCUIT_OUTLINE_NEW
 10
19.7896787302106
 20
6.229935729226492
 30
0.0
 11
19.78629964595572
 21
6.227608288697745
 31
0.0
  0
LINE
  5
119
  8
CIRCUIT_OUTLINE_NEW
 10
19.78629964595572
 20
6.227608288697745
 30
0.0
 11
19.78287068974174
 21
6.225356083027868
 31
0.0
  0
LINE
  5
11A
  8
CIRCUIT_OUTLINE_NEW
 10
19.78287068974174
 20
6.225356083027868
 30
0.0
 11
19.77939434947231
 21
6.22317966659767
 31
0.0
  0
LINE
  5
11B
  8
CIRCUIT_OUTLINE_NEW
 10
19.77939434947231
 20
6.22317966659767
 30
0.0
 11
19.77659671177302
 21
6.221503364528708
 31
0.0
  0
LINE
  5
11C
  8
CIRCUIT_OUTLINE_NEW
 10
19.77659671177302
 20
6.221503364528708
 30
0.0
 11
19.77376979658796
 21
6.219877736222272
 31
0.0
  0
LINE
  5
11D
  8
CIRCUIT_OUTLINE_NEW
 10
19.77376979658796
 20
6.219877736222272
 30
0.0
 11
19.77091273097015
 21
6.218305154968726
 31
0.0
  0
LINE
  5
11E
  8
CIRCUIT_OUTLINE_NEW
 10
19.77091273097015
 20
6.218305154968726
 30
0.0
 11
19.76802464197262
 21
6.216787994058434
 31
0.0
  0
LINE
  5
11F
  8
CIRCUIT_OUTLINE_NEW
 10
19.76802464197262
 20
6.216787994058434
 30
0.0
 11
19.76469398082277
 21
6.215128615880255
 31
0.0
  0
LINE
  5
120
  8
CIRCUIT_OUTLINE_NEW
 10
19.76469398082277
 20
6.215128615880255
 30
0.0
 11
19.76132503579602
 21
6.213545261855312
 31
0.0
  0
LINE
  5
121
  8
CIRCUIT_OUTLINE_NEW
 10
19.76132503579602
 20
6.213545261855312
 30
0.0
 11
19.75792097614007
 21
6.212038846337538
 31
0.0
  0
LINE
  5
122
  8
CIRCUIT_OUTLINE_NEW
 10
19.75792097614007
 20
6.212038846337538
 30
0.0
 11
19.75448497110263
 21
6.210610283680863
 31
0.0
  0
LINE
  5
123
  8
CIRCUIT_OUTLINE_NEW
 10
19.75448497110263
 20
6.210610283680863
 30
0.0
 11
19.75096294734111
 21
6.209238367245185
 31
0.0
  0
LINE
  5
124
  8
CIRCUIT_OUTLINE_NEW
 10
19.75096294734111
 20
6.209238367245185
 30
0.0
 11
19.74741313086544
 21
6.207944828544607
 31
0.0
  0
LINE
  5
125
  8
CIRCUIT_OUTLINE_NEW
 10
19.74741313086544
 20
6.207944828544607
 30
0.0
 11
19.74383745611856
 21
6.206726674919052
 31
0.0
  0
LINE
  5
126
  8
CIRCUIT_OUTLINE_NEW
 10
19.74383745611856
 20
6.206726674919052
 30
0.0
 11
19.74023785754342
 21
6.205580913708445
 31
0.0
  0
LINE
  5
127
  8
CIRCUIT_OUTLINE_NEW
 10
19.74023785754342
 20
6.205580913708445
 30
0.0
 11
19.73661626958297
 21
6.204504552252708
 31
0.0
  0
LINE
  5
128
  8
CIRCUIT_OUTLINE_NEW
 10
19.73661626958297
 20
6.204504552252708
 30
0.0
 11
19.73297462668017
 21
6.203494597891765
 31
0.0
  0
LINE
  5
129
  8
CIRCUIT_OUTLINE_NEW
 10
19.73297462668017
 20
6.203494597891765
 30
0.0
 11
19.72563891381933
 21
6.201661939813949
 31
0.0
  0
LINE
  5
12A
  8
CIRCUIT_OUTLINE_NEW
 10
19.72563891381933
 20
6.201661939813949
 30
0.0
 11
19.72216350769097
 21
6.200883098619852
 31
0.0
  0
LINE
  5
12B
  8
CIRCUIT_OUTLINE_NEW
 10
19.72216350769097
 20
6.200883098619852
 30
0.0
 11
19.71867488342954
 21
6.200171484218327
 31
0.0
  0
LINE
  5
12C
  8
CIRCUIT_OUTLINE_NEW
 10
19.71867488342954
 20
6.200171484218327
 30
0.0
 11
19.71517246365051
 21
6.199543385520515
 31
0.0
  0
LINE
  5
12D
  8
CIRCUIT_OUTLINE_NEW
 10
19.71517246365051
 20
6.199543385520515
 30
0.0
 11
19.71165567096939
 21
6.199015091437555
 31
0.0
  0
LINE
  5
12E
  8
CIRCUIT_OUTLINE_NEW
 10
19.71165567096939
 20
6.199015091437555
 30
0.0
 11
19.70934754689552
 21
6.19872966482307
 31
0.0
  0
LINE
  5
12F
  8
CIRCUIT_OUTLINE_NEW
 10
19.70934754689552
 20
6.19872966482307
 30
0.0
 11
19.70703384144292
 21
6.198488454230436
 31
0.0
  0
LINE
  5
130
  8
CIRCUIT_OUTLINE_NEW
 10
19.70703384144292
 20
6.198488454230436
 30
0.0
 11
19.70239294442408
 21
6.198116881242368
 31
0.0
  0
LINE
  5
131
  8
CIRCUIT_OUTLINE_NEW
 10
19.70239294442408
 20
6.198116881242368
 30
0.0
 11
19.69308001208965
 21
6.19766452897653
 31
0.0
  0
LINE
  5
132
  8
CIRCUIT_OUTLINE_NEW
 10
19.69308001208965
 20
6.19766452897653
 30
0.0
 11
19.65219875592689
 21
6.19691804717653
 31
0.0
  0
LINE
  5
133
  8
CIRCUIT_OUTLINE_NEW
 10
19.65219875592689
 20
6.19691804717653
 30
0.0
 11
19.42771834772145
 21
6.197344108835433
 31
0.0
  0
LINE
  5
134
  8
CIRCUIT_OUTLINE_NEW
 10
19.42771834772145
 20
6.197344108835433
 30
0.0
 11
19.30299173570987
 21
6.197071318122519
 31
0.0
  0
LINE
  5
135
  8
CIRCUIT_OUTLINE_NEW
 10
19.30299173570987
 20
6.197071318122519
 30
0.0
 11
19.30299173570987
 21
5.539083256125022
 31
0.0
  0
LINE
  5
136
  8
CIRCUIT_OUTLINE_NEW
 10
19.30299173570987
 20
5.539083256125022
 30
0.0
 11
19.36030918323503
 21
5.473880364791797
 31
0.0
  0
ARC
  5
137
  8
CIRCUIT_OUTLINE_NEW
 10
-19.17254357342466
 20
5.308822569542562
 30
0.0
 40
0.2499999999999945
 50
138.6824936489264
 51
173.2585887991315
210
0.0
220
0.0
230
-1.0
  0
CIRCLE
  5
138
  8
CIRCUIT_OUTLINE_NEW
 10
18.61431385011877
 20
7.709975654542569
 30
0.0
 40
0.1290665215694702
  0
CIRCLE
  5
139
  8
CIRCUIT_OUTLINE_NEW
 10
-18.61431385011877
 20
7.709975654542571
 30
0.0
 40
0.1290665215694702
210
0.0
220
0.0
230
-1.0
  0
CIRCLE
  5
13A
  8
CIRCUIT_OUTLINE_NEW
 10
18.61431385011876
 20
5.789941207752292
 30
0.0
 40
0.1290665215694737
  0
CIRCLE
  5
13B
  8
CIRCUIT_OUTLINE_NEW
 10
18.61431385011878
 20
6.429952588877869
 30
0.0
 40
0.1290665215694595
  0
CIRCLE
  5
13C
  8
CIRCUIT_OUTLINE_NEW
 10
18.61431385011877
 20
7.069964049143586
 30
0.0
 40
0.1290665215694666
  0
ENDSEC
  0
EOF
