G04 EAGLE Gerber RS-274X export*
G75*
%MOMM*%
%FSLAX34Y34*%
%LPD*%
%INSolderpaste Top*%
%IPPOS*%
%AMOC8*
5,1,8,0,0,1.08239X$1,22.5*%
G01*
G04 Define Apertures*
G36*
X17974Y-113517D02*
X5387411Y-173480D01*
X5385904Y-299299D01*
X16425Y-224467D01*
X17974Y-113517D01*
G37*
G36*
X18700Y-3900D02*
X18800Y-3800D01*
X18300Y-105800D01*
X18700Y-3900D01*
G37*
G36*
X18266Y3942D02*
X17839Y105941D01*
X5387582Y143454D01*
X5388219Y13222D01*
X2973203Y9049D01*
X2964500Y12576D01*
X2955766Y9018D01*
X2404114Y8065D01*
X2399810Y11392D01*
X2394500Y12576D01*
X2389171Y11383D01*
X2384859Y8032D01*
X1772425Y6973D01*
X1767917Y11087D01*
X1762000Y12576D01*
X1756064Y11076D01*
X1751551Y6937D01*
X1038161Y5705D01*
X1033553Y10720D01*
X1027000Y12576D01*
X1020428Y10709D01*
X1015820Y5666D01*
X18266Y3942D01*
G37*
G36*
X5387582Y-143454D02*
X17839Y-105941D01*
X18266Y-3942D01*
X1015897Y-5666D01*
X1020501Y-10602D01*
X1027000Y-12424D01*
X1033481Y-10613D01*
X1038083Y-5704D01*
X1751653Y-6938D01*
X1756144Y-10968D01*
X1762000Y-12424D01*
X1767837Y-10978D01*
X1772323Y-6973D01*
X2384986Y-8032D01*
X2389261Y-11273D01*
X2394500Y-12424D01*
X2399720Y-11282D01*
X2403986Y-8065D01*
X2955925Y-9019D01*
X2964500Y-12424D01*
X2973044Y-9048D01*
X5388219Y-13222D01*
X5387582Y-143454D01*
G37*
G36*
X17974Y113517D02*
X16425Y224467D01*
X5385904Y299299D01*
X5387411Y173480D01*
X17974Y113517D01*
G37*
M02*
