G04 EAGLE Gerber RS-274X export*
G75*
%MOMM*%
%FSLAX34Y34*%
%LPD*%
%INBottom Copper*%
%IPPOS*%
%AMOC8*
5,1,8,0,0,1.08239X$1,22.5*%
G01*
G04 Define Apertures*
%ADD10C,1.778000*%
%ADD11C,0.609600*%
%ADD12C,6.451600*%
%ADD13C,1.275000*%
%ADD14C,1.016000*%
D10*
X5412600Y87700D03*
X5412600Y62300D03*
X5412600Y36900D03*
D11*
X5406758Y36900D01*
D10*
X5412600Y11500D03*
X5412600Y-13900D03*
X5412600Y-39300D03*
X5412600Y-64700D03*
X5412600Y-90100D03*
X5438000Y-90100D03*
X5438000Y-64700D03*
X5438000Y-39300D03*
X5438000Y-13900D03*
X5438000Y11500D03*
X5438000Y36900D03*
X5438000Y62300D03*
X5438000Y87700D03*
D12*
X5539600Y-242500D03*
X5539600Y-77400D03*
X5539600Y87700D03*
X5539600Y240100D03*
D13*
X24500Y123500D03*
D14*
X100700Y161600D02*
X5248530Y161600D01*
X100700Y161600D02*
X62600Y123500D01*
X24500Y123500D01*
X5248530Y161600D02*
X5373230Y36900D01*
D13*
X24800Y13400D03*
D14*
X5398630Y13400D01*
D11*
X5398630Y11500D01*
D13*
X25100Y-96400D03*
D14*
X5266600Y-96400D01*
X5349100Y-13900D01*
X5398630Y-13900D01*
D13*
X24200Y-205700D03*
D14*
X5233500Y-205700D01*
D11*
X5398630Y-40570D02*
X5398630Y-39300D01*
D14*
X5398630Y-40570D02*
X5233500Y-205700D01*
X5399900Y-39300D02*
X5412400Y-39300D01*
D11*
X5412900Y-38800D01*
D14*
X5411500Y-13200D02*
X5398800Y-13200D01*
D11*
X5411500Y-13200D02*
X5412300Y-14000D01*
D14*
X5412500Y11500D02*
X5399900Y11500D01*
D11*
X5412500Y11500D02*
X5413200Y10800D01*
D14*
X5411600Y36200D02*
X5399300Y36200D01*
D11*
X5411600Y36200D02*
X5412700Y37300D01*
D14*
X5399900Y36900D02*
X5374500Y36900D01*
M02*
