G04 EAGLE Gerber RS-274X export*
G75*
%MOMM*%
%FSLAX34Y34*%
%LPD*%
%INTop Copper*%
%IPPOS*%
%AMOC8*
5,1,8,0,0,1.08239X$1,22.5*%
G01*
G04 Define Apertures*
%ADD10C,1.778000*%
%ADD11C,6.451600*%
%ADD12C,0.762000*%
%ADD13C,1.275000*%
D10*
X5412600Y87700D03*
X5412600Y62300D03*
X5412600Y36900D03*
X5412600Y11500D03*
X5412600Y-13900D03*
X5412600Y-39300D03*
X5412600Y-64700D03*
X5412600Y-90100D03*
X5438000Y-90100D03*
X5438000Y-64700D03*
X5438000Y-39300D03*
X5438000Y-13900D03*
X5438000Y11500D03*
X5438000Y36900D03*
X5438000Y62300D03*
X5438000Y87700D03*
D11*
X5539600Y-242500D03*
X5539600Y-77400D03*
X5539600Y87700D03*
X5539600Y240100D03*
D12*
X5453400Y223700D02*
X5385100Y241600D01*
X5453400Y223700D02*
X5485100Y158000D01*
X5451200Y115100D01*
X5415900Y113700D01*
X5411500Y101700D01*
X5411900Y87800D01*
X5412100Y62000D02*
X5384600Y60300D01*
X5386100Y-65300D02*
X5412600Y-64800D01*
X5463200Y-216400D02*
X5385000Y-247000D01*
X5463200Y-216400D02*
X5492400Y-156300D01*
X5455600Y-121700D01*
X5416200Y-121700D01*
X5412300Y-112200D01*
X5412300Y-90800D01*
X5540000Y-144400D02*
X5540300Y-216600D01*
X5540000Y-144400D02*
X5474800Y-101800D01*
X5438100Y-90100D01*
X5463200Y-41400D02*
X5518100Y-68400D01*
X5463200Y-41400D02*
X5438400Y-39500D01*
X5475800Y36900D02*
X5521800Y66800D01*
X5475800Y36900D02*
X5440100Y36900D01*
X5538300Y150500D02*
X5538100Y212100D01*
X5538300Y150500D02*
X5475600Y101400D01*
X5462400Y90700D01*
X5438600Y88000D01*
X5383200Y192800D02*
X5382400Y285500D01*
X5383700Y131900D02*
X5383500Y37700D01*
X5384100Y-38300D02*
X5383700Y-130100D01*
X5383700Y-194400D02*
X5382100Y-286100D01*
X23600Y121800D02*
X20200Y211200D01*
X23300Y101700D02*
X24100Y13100D01*
X22700Y-9100D02*
X24600Y-97200D01*
X21700Y-117700D02*
X23300Y-205900D01*
D13*
X24500Y123500D03*
X24800Y13400D03*
X25100Y-96400D03*
X24200Y-205700D03*
M02*
