G04 EAGLE Gerber RS-274X export*
G75*
%MOMM*%
%FSLAX34Y34*%
%LPD*%
%IN*%
%IPPOS*%
%AMOC8*
5,1,8,0,0,1.08239X$1,22.5*%
G01*
G04 Define Apertures*
%ADD10C,0.254000*%
D10*
X100Y-233300D02*
X5543217Y-310404D01*
X5544276Y-310411D01*
X5550909Y-310113D01*
X5557492Y-309239D01*
X5563972Y-307794D01*
X5570303Y-305790D01*
X5576434Y-303242D01*
X5582320Y-300169D01*
X5587916Y-296595D01*
X5593179Y-292547D01*
X5598070Y-288056D01*
X5602550Y-283155D01*
X5606586Y-277883D01*
X5610147Y-272278D01*
X5613206Y-266385D01*
X5615740Y-260248D01*
X5617729Y-253913D01*
X5619159Y-247429D01*
X5620018Y-240845D01*
X5620300Y-234211D01*
X5619500Y236482D01*
X5619493Y237540D01*
X5619127Y243962D01*
X5618202Y250327D01*
X5616727Y256587D01*
X5614711Y262695D01*
X5612170Y268603D01*
X5609124Y274268D01*
X5605596Y279646D01*
X5601613Y284696D01*
X5597205Y289380D01*
X5592405Y293661D01*
X5587251Y297508D01*
X5581780Y300891D01*
X5576036Y303785D01*
X5570062Y306166D01*
X5563902Y308018D01*
X5557605Y309326D01*
X5551217Y310081D01*
X5544789Y310275D01*
X100Y233100D01*
X100Y-233300D01*
M02*
