G04 EAGLE Gerber RS-274X export*
G75*
%MOMM*%
%FSLAX34Y34*%
%LPD*%
%INSoldermask Top*%
%IPPOS*%
%AMOC8*
5,1,8,0,0,1.08239X$1,22.5*%
G01*
G04 Define Apertures*
%ADD10C,3.251200*%
%ADD11C,1.981200*%
%ADD12C,6.654800*%
%ADD13C,1.478200*%
G36*
X16002Y-111494D02*
X5389435Y-171502D01*
X5387879Y-301327D01*
X14397Y-226439D01*
X16002Y-111494D01*
G37*
G36*
X16274Y-1939D02*
X1017115Y-3668D01*
X1017673Y-4747D01*
X1018700Y-6355D01*
X1020001Y-7751D01*
X1021533Y-8889D01*
X1023246Y-9730D01*
X1025082Y-10247D01*
X1026982Y-10424D01*
X1028882Y-10254D01*
X1030721Y-9743D01*
X1032436Y-8907D01*
X1033972Y-7775D01*
X1035278Y-6384D01*
X1036310Y-4780D01*
X1036872Y-3702D01*
X1752715Y-4939D01*
X1753309Y-5815D01*
X1754612Y-7385D01*
X1756195Y-8674D01*
X1757998Y-9631D01*
X1759951Y-10222D01*
X1761982Y-10424D01*
X1764013Y-10229D01*
X1765969Y-9645D01*
X1767774Y-8694D01*
X1769362Y-7411D01*
X1770671Y-5845D01*
X1771268Y-4971D01*
X1772326Y-4973D01*
X2385911Y-6034D01*
X2386509Y-6735D01*
X2387954Y-8133D01*
X2389639Y-9231D01*
X2391503Y-9987D01*
X2393476Y-10374D01*
X2395488Y-10377D01*
X2397463Y-9997D01*
X2399329Y-9248D01*
X2401018Y-8156D01*
X2402468Y-6762D01*
X2403068Y-6063D01*
X2956720Y-7020D01*
X2957297Y-7564D01*
X2958856Y-8778D01*
X2960616Y-9679D01*
X2962514Y-10234D01*
X2964482Y-10424D01*
X2966451Y-10241D01*
X2968350Y-9693D01*
X2970113Y-8798D01*
X2971677Y-7588D01*
X2972255Y-7047D01*
X2973047Y-7048D01*
X5390229Y-11225D01*
X5389572Y-145468D01*
X15830Y-107927D01*
X16274Y-1939D01*
G37*
G36*
X16274Y1939D02*
X15830Y107927D01*
X5389572Y145468D01*
X5390229Y11225D01*
X2972394Y7047D01*
X2971811Y7613D01*
X2970230Y8875D01*
X2968436Y9810D01*
X2966496Y10385D01*
X2964482Y10576D01*
X2962469Y10378D01*
X2960531Y9797D01*
X2958740Y8855D01*
X2957163Y7588D01*
X2956582Y7020D01*
X2955769Y7018D01*
X2403177Y6063D01*
X2402576Y6787D01*
X2401119Y8227D01*
X2399411Y9357D01*
X2397516Y10134D01*
X2395506Y10528D01*
X2393458Y10524D01*
X2391449Y10123D01*
X2389557Y9340D01*
X2387853Y8204D01*
X2386401Y6759D01*
X2385803Y6033D01*
X2384862Y6032D01*
X1771351Y4972D01*
X1770757Y5870D01*
X1769581Y7341D01*
X1768161Y8579D01*
X1766542Y9543D01*
X1764778Y10202D01*
X1762924Y10535D01*
X1761040Y10532D01*
X1759187Y10192D01*
X1757425Y9527D01*
X1755810Y8557D01*
X1754394Y7315D01*
X1753223Y5840D01*
X1752632Y4939D01*
X1036931Y3702D01*
X1036375Y4804D01*
X1035350Y6441D01*
X1034043Y7864D01*
X1032497Y9022D01*
X1030765Y9878D01*
X1028906Y10402D01*
X1026982Y10576D01*
X1025059Y10395D01*
X1023201Y9865D01*
X1021472Y9003D01*
X1019930Y7839D01*
X1018628Y6413D01*
X1017608Y4772D01*
X1017057Y3668D01*
X1015823Y3666D01*
X16274Y1939D01*
G37*
G36*
X16002Y111494D02*
X14397Y226439D01*
X5387879Y301327D01*
X5389435Y171502D01*
X16002Y111494D01*
G37*
D10*
X5425400Y166200D03*
X5425200Y-165600D03*
D11*
X5412600Y87700D03*
X5412600Y62300D03*
X5412600Y36900D03*
X5412600Y11500D03*
X5412600Y-13900D03*
X5412600Y-39300D03*
X5412600Y-64700D03*
X5412600Y-90100D03*
X5438000Y-90100D03*
X5438000Y-64700D03*
X5438000Y-39300D03*
X5438000Y-13900D03*
X5438000Y11500D03*
X5438000Y36900D03*
X5438000Y62300D03*
X5438000Y87700D03*
D12*
X5539600Y-242500D03*
X5539600Y-77400D03*
X5539600Y87700D03*
X5539600Y240100D03*
D13*
X24500Y123500D03*
X24800Y13400D03*
X25100Y-96400D03*
X24200Y-205700D03*
M02*
