M48
;GenerationSoftware,Autodesk,EAGLE,9.7.0*%
;CreationDate,2024-11-24T20:09:51Z*%
FMAT,2
ICI,OFF
METRIC,TZ,000.000
T3C0.850
T2C1.016
T1C3.048
%
G90
M71
T1
X542520Y-16560
X542540Y16620
X553960Y24010
X553960Y8770
X553960Y-7740
X553960Y-24250
T2
X541260Y-6470
X541260Y-9010
X543800Y-9010
X543800Y-6470
X543800Y-3930
X543800Y-1390
X543800Y1150
X541260Y8770
X543800Y6230
X543800Y8770
X541260Y-3930
X541260Y-1390
X541260Y1150
X541260Y3690
X543800Y3690
X541260Y6230
T3
X2510Y-9640
X2420Y-20570
X2480Y1340
X2450Y12350
M30